<svg width="44" height="50" viewBox="0 0 44 50" fill="none" xmlns="http://www.w3.org/2000/svg">
<g id="_&#235;&#160;&#136;&#236;&#157;&#180;&#236;&#150;&#180;_1">
<path id="Vector" d="M2.76495 0.147551C2.76495 0.147551 0 0.229004 0 2.9185V44.4028C0 44.4028 0 47.0923 2.76495 47.1737C6.72299 47.2905 25.2603 47.0554 31.2288 47.1737C31.8652 47.186 32.3713 47.2029 32.5047 47.2076C30.2366 44.1292 27.9685 41.0509 25.7004 37.9741L26.343 29.3739C29.0297 29.8119 31.7164 30.2499 34.4032 30.6894C36.7525 33.7632 39.1019 36.8384 41.4497 39.9121C41.4666 27.7664 41.485 15.6191 41.5019 3.4733C41.5019 3.4733 41.4359 0.0353605 38.9225 0.0046234C36.409 -0.0261137 2.76495 0.147551 2.76495 0.147551Z" fill="#316464"/>
<path id="Vector_2" d="M28.4239 31.879C28.3442 32.924 28.266 33.9691 28.1862 35.0142C31.5615 39.4618 34.9353 43.911 38.3106 48.3587C39.2813 47.5626 40.2505 46.768 41.2212 45.9719C37.9993 41.4705 34.7789 36.9706 31.5569 32.4691C30.5126 32.2724 29.4683 32.0757 28.4239 31.879Z" fill="#316464"/>
<path id="Vector_3" d="M38.556 48.6891C39.5252 47.8899 40.4944 47.0907 41.4635 46.2916C41.8024 46.7557 42.1414 47.2183 42.4803 47.6824C41.5218 48.4539 40.5634 49.227 39.6064 49.9985C39.2568 49.562 38.9056 49.1255 38.556 48.6891Z" fill="#316464"/>
<path id="Vector_4" d="M34.0229 7.25089H7.47902C6.25942 7.25089 5.27074 8.24171 5.27074 9.46395C5.27074 10.6862 6.25942 11.677 7.47902 11.677H34.0229C35.2425 11.677 36.2311 10.6862 36.2311 9.46395C36.2311 8.24171 35.2425 7.25089 34.0229 7.25089Z" fill="white"/>
<path id="Vector_5" d="M27.1051 18.2916H7.47902C6.25942 18.2916 5.27074 19.2825 5.27074 20.5047C5.27074 21.7269 6.25942 22.7178 7.47902 22.7178H27.1051C28.3247 22.7178 29.3134 21.7269 29.3134 20.5047C29.3134 19.2825 28.3247 18.2916 27.1051 18.2916Z" fill="white"/>
<path id="Vector_6" d="M25.9764 29.3324H7.47902C6.25942 29.3324 5.27074 30.3232 5.27074 31.5455C5.27074 32.7677 6.25942 33.7585 7.47902 33.7585H25.9764C27.196 33.7585 28.1847 32.7677 28.1847 31.5455C28.1847 30.3232 27.196 29.3324 25.9764 29.3324Z" fill="white"/>
</g>
</svg>
