<svg width="10" height="9" viewBox="0 0 10 9" fill="none" xmlns="http://www.w3.org/2000/svg">
<path d="M3.65299 1.7636C4.11135 0.49252 5.90897 0.49252 6.36732 1.7636C6.56789 2.31978 7.08749 2.6973 7.67843 2.71618C9.02894 2.75931 9.58444 4.46895 8.51721 5.29766C8.05022 5.66027 7.85175 6.27111 8.01641 6.83896C8.39271 8.1367 6.93841 9.19331 5.82047 8.4344C5.3313 8.10233 4.68902 8.10233 4.19985 8.4344C3.08191 9.19331 1.62761 8.1367 2.00391 6.83896C2.16857 6.27111 1.9701 5.66027 1.50311 5.29766C0.435882 4.46895 0.991377 2.75931 2.34189 2.71618C2.93282 2.6973 3.45243 2.31978 3.65299 1.7636Z" fill="#F6C65D"/>
</svg>
