<svg width="28" height="26" viewBox="0 0 28 26" fill="none" xmlns="http://www.w3.org/2000/svg">
<path d="M8.56273 21.6331C8.29238 21.5056 8.02791 21.3538 7.77519 21.1899C7.55773 21.0563 7.34615 20.9166 7.14044 20.7709C7.01115 20.6798 6.88185 20.5827 6.75842 20.4855C6.71728 20.4552 6.54097 20.3155 6.75255 20.4855C6.66439 20.4126 6.57623 20.3398 6.49395 20.2669C5.15982 19.1193 4.10779 17.8078 3.49068 16.1076C2.71489 13.9643 2.76191 11.6751 3.52595 9.53782C3.7963 8.77883 4.22534 7.98341 4.69552 7.26692C4.7778 7.13941 4.86596 7.0119 4.95411 6.89046C5.1892 6.54436 4.91885 6.91475 5.0599 6.75081C5.20096 6.58686 5.33026 6.41078 5.47719 6.25291C6.87009 4.68635 8.68616 3.71484 10.6844 3.27766C11.4249 3.11372 11.8128 3.07122 12.665 3.04086C13.1587 3.02264 13.6524 3.02264 14.1461 3.053C15.0042 3.10765 15.4097 3.16837 16.3442 3.41124C17.2787 3.65412 18.2425 4.03058 19.1124 4.54669C20.0351 5.0871 20.8285 5.76715 21.5573 6.56258C22.1391 7.20013 22.4212 7.57052 22.8679 8.34772C24.1609 10.5943 24.4019 13.2356 23.6202 15.713C23.3146 16.6784 22.8503 17.5831 22.2919 18.4453C22.1803 18.6154 22.0686 18.7793 21.9511 18.9432C21.9099 19.004 21.7748 19.174 21.9746 18.9129C21.9217 18.9797 21.8747 19.0465 21.8159 19.1133C21.6807 19.2772 21.5455 19.4411 21.4045 19.599C20.1174 21.0259 22.192 23.1814 23.485 21.7485C26.4824 18.415 27.9047 13.4846 26.4236 9.09457C24.8309 4.41311 20.6581 1.02498 15.968 0.235626C12.1243 -0.414071 8.0044 0.235626 4.86008 2.73726C1.32786 5.54856 -0.546974 10.2847 0.140663 14.8386C0.74014 18.8157 3.5377 22.55 7.0758 24.2501C7.79282 24.5962 8.65677 24.4566 9.08581 23.7036C9.45607 23.0479 9.27976 21.9731 8.55686 21.627L8.56273 21.6331Z" fill="white"/>
<path d="M22.9148 20.3395C21.4514 18.5665 19.9292 16.8481 18.3423 15.1905C17.925 14.7533 17.2727 14.644 16.7378 14.8747C16.203 15.1055 15.868 15.6459 15.8327 16.2591C15.7563 17.6253 15.6329 18.9915 15.4683 20.3516C15.4507 20.5095 15.4331 20.6613 15.4096 20.8192C15.4448 20.552 15.3802 21.0499 15.3684 21.1045C15.3214 21.4264 15.2744 21.7542 15.2274 22.076C15.1216 22.744 15.0099 23.4119 14.8865 24.0737C14.7102 25.0149 15.2861 26.0167 16.3029 25.9924C18.9242 25.9378 21.5454 25.8831 24.1666 25.8285C24.7602 25.8164 25.2774 25.4581 25.5067 24.8934C25.7535 24.2862 25.5831 23.7337 25.201 23.2358C24.4546 22.2521 23.6906 21.2867 22.9089 20.3334C22.4094 19.7262 21.3397 19.7626 20.8284 20.3334C20.2524 20.977 20.2935 21.8332 20.8284 22.4829C21.61 23.4362 22.3741 24.4016 23.1205 25.3853L24.1608 22.7925C21.5395 22.8472 18.9183 22.9018 16.297 22.9565L17.7134 24.8752C18.2424 22.0275 18.6009 19.1433 18.7655 16.2531L16.2559 17.3278C17.8427 18.9854 19.3649 20.7038 20.8284 22.4768C21.3279 23.084 22.3976 23.0476 22.9089 22.4768C23.4849 21.8332 23.4437 20.977 22.9089 20.3273L22.9148 20.3395Z" fill="white"/>
<path d="M21.3163 19.7019H17.1023V23.4969H21.3163V19.7019Z" fill="white"/>
</svg>
