<svg width="32" height="28" viewBox="0 0 32 28" fill="none" xmlns="http://www.w3.org/2000/svg">
<g clip-path="url(#clip0_1020_157)">
<path d="M31.3769 0H1.37103C1.02804 0 0.75 0.280423 0.75 0.626342V0.628451C0.75 0.97437 1.02804 1.25479 1.37103 1.25479H31.3769C31.7199 1.25479 31.9979 0.97437 31.9979 0.628451V0.626342C31.9979 0.280423 31.7199 0 31.3769 0Z" fill="white"/>
<path d="M31.0681 0.0858419L13.1642 10.5112C12.8671 10.6841 12.7654 11.0672 12.9369 11.3668L12.9379 11.3686C13.1094 11.6682 13.4892 11.7708 13.7862 11.5979L31.6902 1.17252C31.9872 0.999565 32.089 0.6165 31.9175 0.316925L31.9165 0.315099C31.745 0.0155244 31.3652 -0.0871174 31.0681 0.0858419Z" fill="white"/>
<path d="M30.838 0.314625L15.8141 26.5594C15.6426 26.859 15.7444 27.242 16.0414 27.415L16.0432 27.416C16.3403 27.589 16.7201 27.4863 16.8916 27.1868L31.9154 0.942022C32.0869 0.642446 31.9851 0.259382 31.6881 0.0864228L31.6863 0.0853681C31.3893 -0.0875915 31.0094 0.01505 30.838 0.314625Z" fill="white"/>
<path d="M16.8933 26.7364L14.0256 10.9934C13.9636 10.6531 13.6399 10.428 13.3026 10.4905L13.3005 10.4909C12.9632 10.5534 12.74 10.8799 12.8019 11.2201L15.6696 26.9631C15.7316 27.3034 16.0553 27.5285 16.3926 27.466L16.3947 27.4656C16.732 27.4031 16.9553 27.0766 16.8933 26.7364Z" fill="white"/>
<path d="M0.963678 1.10065L13.003 11.53C13.2632 11.7554 13.6553 11.7254 13.8788 11.463L13.8801 11.4614C14.1036 11.199 14.0738 10.8035 13.8137 10.5781L1.77432 0.148782C1.51414 -0.0766078 1.12206 -0.046597 0.898578 0.215814L0.897216 0.217413C0.673738 0.479824 0.703494 0.875265 0.963678 1.10065Z" fill="white"/>
</g>
<defs>
<clipPath id="clip0_1020_157">
<rect width="31.25" height="27.5" fill="white" transform="translate(0.75)"/>
</clipPath>
</defs>
</svg>
