<svg width="45" height="50" viewBox="0 0 45 50" fill="none" xmlns="http://www.w3.org/2000/svg">
<rect width="45" height="50" fill="#929292"/>
<path d="M-403.724 -607.474C-404.538 -607.627 -405.322 -607.09 -405.474 -606.276L-407.957 -593.006C-408.109 -592.192 -407.573 -591.408 -406.758 -591.256C-405.944 -591.104 -405.16 -591.64 -405.008 -592.454L-402.801 -604.25L-391.006 -602.043C-390.192 -601.891 -389.408 -602.428 -389.256 -603.242C-389.103 -604.056 -389.64 -604.84 -390.454 -604.992L-403.724 -607.474ZM12.2376 -0.847538L-402.762 -606.848L-405.238 -605.153L9.76239 0.847538L12.2376 -0.847538Z" fill="black"/>
<g clip-path="url(#clip0_0_1)">
<rect width="360" height="800" transform="translate(-158 -387)" fill="white"/>
<g clip-path="url(#clip1_0_1)">
<path d="M39.6189 47.9535C39.6189 47.9535 42.4467 47.8709 42.4467 45.1453V3.10407C42.4467 3.10407 42.4467 0.37847 39.6189 0.295924C35.5709 0.177555 16.6123 0.41585 10.5082 0.295924C9.85728 0.283464 9.33971 0.266331 9.20326 0.260101C8.1446 2.13064 7.08595 4.00118 6.02729 5.87328C4.03545 6.46669 2.04517 7.06165 0.053325 7.65505C0.0360728 19.9639 0.0172522 32.2742 0 44.5831C0 44.5831 0.0674404 48.0672 2.63802 48.0983C5.21016 48.1295 39.6189 47.9535 39.6189 47.9535Z" fill="#316464"/>
<path d="M2.82779 0.149641C2.82779 0.149641 0 0.232187 0 2.95779V44.999C0 44.999 0 47.7246 2.82779 47.8072C6.87578 47.9256 25.8344 47.6873 31.9385 47.8072C32.5894 47.8196 33.107 47.8368 33.2434 47.843C34.3021 45.9725 35.3607 44.1019 36.4194 42.2298C38.4112 41.6364 40.4015 41.0415 42.3933 40.4481C42.4106 28.1392 42.4294 15.8289 42.4467 3.52004C42.4467 3.52004 42.3792 0.0359442 39.8087 0.00479443C37.2365 -0.0263553 2.82779 0.149641 2.82779 0.149641Z" fill="#316464"/>
<path d="M34.7961 7.34824H7.649C6.40168 7.34824 5.39053 8.35236 5.39053 9.59102C5.39053 10.8297 6.40168 11.8338 7.649 11.8338H34.7961C36.0434 11.8338 37.0546 10.8297 37.0546 9.59102C37.0546 8.35236 36.0434 7.34824 34.7961 7.34824Z" fill="white"/>
<path d="M27.7211 20.78H7.649C6.40168 20.78 5.39053 21.7841 5.39053 23.0228C5.39053 24.2614 6.40168 25.2656 7.649 25.2656H27.7211C28.9685 25.2656 29.9796 24.2614 29.9796 23.0228C29.9796 21.7841 28.9685 20.78 27.7211 20.78Z" fill="white"/>
<path d="M34.7961 34.2118H7.649C6.40168 34.2118 5.39053 35.2159 5.39053 36.4545C5.39053 37.6932 6.40168 38.6973 7.649 38.6973H34.7961C36.0434 38.6973 37.0546 37.6932 37.0546 36.4545C37.0546 35.2159 36.0434 34.2118 34.7961 34.2118Z" fill="white"/>
</g>
</g>
<defs>
<clipPath id="clip0_0_1">
<rect width="360" height="800" fill="white" transform="translate(-158 -387)"/>
</clipPath>
<clipPath id="clip1_0_1">
<rect width="45" height="50" fill="white"/>
</clipPath>
</defs>
</svg>
